<svg width="218" height="517" viewBox="0 0 218 517" fill="none" xmlns="http://www.w3.org/2000/svg">
<path d="M218 108C218 167.647 169.199 216 109 216C48.801 216 0 167.647 0 108C0 48.3532 48.801 0 109 0C169.199 0 218 48.3532 218 108Z" fill="#EAEBE7"/>
<path d="M213 108C213 164.842 166.481 211 109 211C51.5188 211 5 164.842 5 108C5 51.158 51.5188 5 109 5C166.481 5 213 51.158 213 108ZM213 408.5C213 465.342 166.481 511.5 109 511.5C51.5188 511.5 5 465.342 5 408.5C5 351.658 51.5188 305.5 109 305.5C166.481 305.5 213 351.658 213 408.5Z" stroke="black" stroke-width="10"/>
</svg>
