<svg width="218" height="517" viewBox="0 0 218 517" fill="none" xmlns="http://www.w3.org/2000/svg">
<path d="M218 408.5C218 468.147 169.199 516.5 109 516.5C48.801 516.5 0 468.147 0 408.5C0 348.853 48.801 300.5 109 300.5C169.199 300.5 218 348.853 218 408.5Z" fill="#252525"/>
<path d="M213 108C213 164.842 166.481 211 109 211C51.5188 211 5 164.842 5 108C5 51.158 51.5188 5 109 5C166.481 5 213 51.158 213 108ZM213 408.5C213 465.342 166.481 511.5 109 511.5C51.5188 511.5 5 465.342 5 408.5C5 351.658 51.5188 305.5 109 305.5C166.481 305.5 213 351.658 213 408.5Z" stroke="black" stroke-width="10"/>
</svg>
