<svg width="218" height="216" viewBox="0 0 218 216" fill="none" xmlns="http://www.w3.org/2000/svg">
<path d="M213 108C213 164.842 166.481 211 109 211C51.5188 211 5 164.842 5 108C5 51.158 51.5188 5.00002 109 5.00002C166.481 5.00002 213 51.158 213 108Z" fill="#252525" stroke="#d0d1e1" stroke-width="10"/>
<path d="M188.5 71.1871C188.503 72.621 188.147 74.033 187.465 75.296C186.782 76.559 185.795 77.6333 184.591 78.4222C183.387 79.211 182.005 79.6897 180.569 79.8149C179.133 79.9402 177.689 79.7082 176.365 79.1398L154.713 131.095H68.1879L46.5532 79.164C44.598 79.9803 42.4103 80.0574 40.402 79.3807C38.3937 78.704 36.7035 77.3202 35.6495 75.49C34.5956 73.6598 34.2507 71.5094 34.6799 69.4439C35.109 67.3783 36.2825 65.5401 37.9795 64.2754C39.6764 63.0107 41.7796 62.4068 43.8931 62.5774C46.0065 62.748 47.9843 63.6814 49.454 65.2018C50.9237 66.7221 51.7839 68.7245 51.8725 70.8319C51.9612 72.9393 51.2722 75.0062 49.9354 76.6434L80.1767 101.262L87.4486 57.5568C85.4015 57.1954 83.5525 56.1159 82.2372 54.5143C80.9218 52.9126 80.2274 50.895 80.2798 48.8275C80.3323 46.76 81.1281 44.7797 82.523 43.2461C83.9178 41.7125 85.8192 40.7271 87.882 40.4689C89.9448 40.2106 92.0324 40.6966 93.7657 41.8387C95.4991 42.9807 96.7634 44.703 97.3292 46.6931C97.895 48.6832 97.7247 50.8091 96.8494 52.685C95.974 54.5609 94.4516 56.0624 92.5583 56.9171L111.437 97.3724L130.353 56.8134C128.471 55.9306 126.971 54.4056 126.123 52.5155C125.276 50.6254 125.138 48.4956 125.736 46.5132C126.333 44.5308 127.626 42.8274 129.378 41.7125C131.131 40.5975 133.228 40.1451 135.287 40.4374C137.347 40.7297 139.233 41.7473 140.602 43.3052C141.972 44.8632 142.734 46.8582 142.75 48.9277C142.766 50.9971 142.035 53.0037 140.69 54.5827C139.346 56.1617 137.476 57.2084 135.421 57.5326L142.696 101.245L173.028 76.5915C172.16 75.5134 171.564 74.2441 171.29 72.8897C171.017 71.5354 171.073 70.1356 171.455 68.8075C171.838 67.4794 172.534 66.2618 173.487 65.2566C174.439 64.2515 175.62 63.4881 176.931 63.0304C178.241 62.5727 179.642 62.434 181.018 62.626C182.393 62.818 183.702 63.3351 184.835 64.1339C185.968 64.9327 186.892 65.99 187.53 67.2172C188.167 68.4444 188.5 69.8057 188.5 71.1871ZM163.591 154.604H59.3102V175.351H163.591V154.604ZM153.945 136.624H69.0535V149.072H153.945V136.624Z" fill="#EAEBE7" fill-opacity="0.9"/>
</svg>
