<svg width="218" height="216" viewBox="0 0 218 216" fill="none" xmlns="http://www.w3.org/2000/svg">
<path d="M213 108C213 164.842 166.481 211 109 211C51.5188 211 5 164.842 5 108C5 51.158 51.5188 5.00002 109 5.00002C166.481 5.00002 213 51.158 213 108Z" fill="#EAEBE7" fill-opacity="0.9" stroke="black" stroke-width="10"/>
<path d="M186 71.8364C186.003 73.2703 185.647 74.6823 184.965 75.9453C184.282 77.2083 183.295 78.2826 182.091 79.0715C180.887 79.8603 179.505 80.339 178.069 80.4642C176.633 80.5895 175.189 80.3575 173.865 79.7891L152.213 131.745H65.6879L44.0532 79.8133C42.098 80.6296 39.9103 80.7067 37.902 80.03C35.8937 79.3533 34.2035 77.9695 33.1495 76.1393C32.0956 74.3091 31.7507 72.1587 32.1799 70.0931C32.609 68.0276 33.7825 66.1894 35.4795 64.9247C37.1764 63.66 39.2796 63.0561 41.3931 63.2267C43.5065 63.3973 45.4843 64.3307 46.954 65.8511C48.4237 67.3714 49.2839 69.3738 49.3725 71.4812C49.4612 73.5886 48.7722 75.6555 47.4354 77.2927L77.6767 101.912L84.9486 58.2061C82.9015 57.8447 81.0525 56.7652 79.7372 55.1636C78.4218 53.5619 77.7274 51.5442 77.7798 49.4768C77.8323 47.4093 78.6281 45.429 80.023 43.8954C81.4178 42.3618 83.3192 41.3764 85.382 41.1182C87.4448 40.8599 89.5324 41.3459 91.2657 42.4879C92.9991 43.63 94.2634 45.3523 94.8292 47.3424C95.395 49.3325 95.2247 51.4584 94.3494 53.3343C93.474 55.2102 91.9516 56.7117 90.0583 57.5664L108.937 98.0217L127.853 57.4627C125.971 56.5799 124.471 55.0549 123.623 53.1648C122.776 51.2747 122.638 49.1449 123.236 47.1625C123.833 45.1801 125.126 43.4767 126.878 42.3618C128.631 41.2468 130.728 40.7944 132.787 41.0867C134.847 41.3789 136.733 42.3965 138.102 43.9545C139.472 45.5125 140.234 47.5075 140.25 49.577C140.266 51.6464 139.535 53.653 138.19 55.232C136.846 56.811 134.976 57.8577 132.921 58.1819L140.196 101.894L170.528 77.2408C169.66 76.1627 169.064 74.8934 168.79 73.539C168.517 72.1847 168.573 70.7848 168.955 69.4568C169.338 68.1287 170.034 66.9111 170.987 65.9059C171.939 64.9008 173.12 64.1374 174.431 63.6797C175.741 63.222 177.142 63.0833 178.518 63.2753C179.893 63.4673 181.202 63.9844 182.335 64.7832C183.468 65.582 184.392 66.6393 185.03 67.8665C185.667 69.0936 186 70.455 186 71.8364ZM161.091 155.254H56.8102V176H161.091V155.254ZM151.445 137.274H66.5535V149.721H151.445V137.274Z" fill="#252525"/>
</svg>
